<svg xmlns="http://www.w3.org/2000/svg" xmlns:xlink="http://www.w3.org/1999/xlink" version="1.1" x="0px" y="0px" viewBox="0 0 52 65" enable-background="new 0 0 52 52" xml:space="preserve"><g><g><path d="M32.0171318,24.5039063h-1.9999981v-6.1762695c0-1.0883789-0.9609375-1.9775391-2.1552734-2.0087891    c-1.2441406,0.1899414-1.8496094,0.8476563-1.8496094,2.0087891v6.1762695h-2v-6.1762695    c0-2.1933594,1.3642578-3.6889648,3.6494141-4.0004883l0.1347656-0.0092773c2.3271484,0,4.2207012,1.7988281,4.2207012,4.0097656    V24.5039063z"/></g><g><path d="M38.0220146,24.5039063h-2v-6.1762695c0-1.0883789-0.9609375-1.9775391-2.1552734-2.0087891    c-1.2441406,0.1899414-1.8496094,0.8476563-1.8496094,2.0087891v6.1762695h-1.9999981v-6.1762695    c0-2.1933594,1.3642578-3.6889648,3.6494122-4.0004883l0.1347656-0.0092773c2.3271484,0,4.2207031,1.7988281,4.2207031,4.0097656    V24.5039063z"/></g><g><path d="M23.8237743,49.4287109c-0.0029297-2.6669922-0.6816406-6.7285156-2.1855469-7.4052734    c-1.3115234-0.7226563-5.3359375-3.1162109-5.7021494-5.4238281l-1.1298828-3.7685547l-5.4853516-6.6894531    c-2.5517578-1.7338867-3.2128906-3.5341797-3.3144531-4.7470703c-0.0791016-0.9130859,0.3671875-1.8212891,1.1640625-2.3681641    c3.4853516-2.3886719,8.3164063,0.4042969,10.8359385,2.2387695l-0.0039063-14.949707    c0-2.1796875,1.7597656-3.8867188,4.0068359-3.8867188c1.59375,0,4.0029297,1.5390625,4.0029297,3.859375v18.2158203h-2V6.2880859    c0-1.0175781-1.3261719-1.859375-2.0029297-1.859375c-1.125,0-2.0068359,0.8286133-2.0068359,1.8862305l0.0058594,19.2817383    l-1.671875-1.5117188c-1.8007813-1.6274414-7.1113291-5.4145508-10.0351572-3.4091797    c-0.2001953,0.1376953-0.3193359,0.3535156-0.3027344,0.5493164c0.0546875,0.6508789,0.4589844,1.9472656,2.5537109,3.3349609    l0.2216797,0.1992188l5.8330088,7.112793l1.3037109,4.4052734c0.0976563,0.8896484,2.4697266,2.765625,4.6230469,3.9589844    c3.1953125,1.4365234,3.2900391,8.4033203,3.2900391,9.1923828H23.8237743z"/></g><g><path d="M41.6616631,49.5712891c-0.0566406-0.3974609-0.3212891-4.5703125-0.2958984-5.2070313    c0.0107422-0.2695313,0.015625-0.5341797,0.0205078-0.7919922c0.0166016-0.8496094,0.0322266-1.6533203,0.2255859-2.4160156    c0.1650391-0.6484375,1.3457031-3.5605469,1.5810547-4.1376953c0.0078125-0.0234375,2.0751953-5.8671875-0.4736328-11.1464844    c-0.453125-0.9384766-0.6923828-1.9819336-0.6923828-3.0185547v-4.5258789c0-1.0883789-0.9599609-1.9775391-2.1542969-2.0087891    c-1.2451172,0.1899414-1.8505859,0.8476563-1.8505859,2.0087891v6.1762695h-2v-6.1762695    c0-2.1933594,1.3642578-3.6889648,3.6503906-4.0004883l0.1347656-0.0092773c2.3271484,0,4.2197266,1.7988281,4.2197266,4.0097656    v4.5258789c0,0.7373047,0.1708984,1.4799805,0.4931641,2.1489258c2.9248047,6.0571289,0.6367188,12.4672852,0.5380859,12.7368164    c-0.5761719,1.4160156-1.4111328,3.5322266-1.5078125,3.9091797c-0.1367188,0.5400391-0.1494141,1.1992188-0.1640625,1.9628906    c-0.0058594,0.2705078-0.0107422,0.5478516-0.0224609,0.8320313c-0.0195313,0.4794922,0.2304688,4.4755859,0.2783203,4.8466797    L41.6616631,49.5712891z"/></g></g></svg>